<?xml version="1.0" standalone="no"?>
<!DOCTYPE svg PUBLIC "-//W3C//DTD SVG 20010904//EN"
 "http://www.w3.org/TR/2001/REC-SVG-20010904/DTD/svg10.dtd">
<svg version="1.0" xmlns="http://www.w3.org/2000/svg"
 width="144.000000pt" height="144.000000pt" viewBox="0 0 144.000000 144.000000"
 preserveAspectRatio="xMidYMid meet">
<metadata>
Created by potrace 1.14, written by Peter Selinger 2001-2017
</metadata>
<g transform="translate(0.000000,144.000000) scale(0.100000,-0.100000)"
fill="#000000" stroke="none">
<path d="M703 1243 c15 -2 37 -2 50 0 12 2 0 4 -28 4 -27 0 -38 -2 -22 -4z"/>
<path d="M489 1193 c-13 -16 -12 -17 4 -4 9 7 17 15 17 17 0 8 -8 3 -21 -13z"/>
<path d="M691 1189 c-79 -13 -75 -19 15 -19 50 1 88 6 104 15 24 14 24 14 -20
13 -25 0 -69 -4 -99 -9z"/>
<path d="M600 1100 c8 -5 22 -10 30 -10 13 0 13 1 0 10 -8 5 -22 10 -30 10
-13 0 -13 -1 0 -10z"/>
<path d="M325 1009 c-28 -28 -45 -50 -40 -48 11 4 101 99 93 99 -2 0 -26 -23
-53 -51z"/>
<path d="M95 903 c8 -47 11 -49 30 -33 24 20 59 4 83 -39 29 -51 28 -58 -8
-66 -58 -13 -110 -87 -110 -157 0 -10 -7 -18 -15 -18 -8 0 -15 -4 -15 -10 0
-12 137 -13 144 -1 3 5 -1 11 -9 15 -38 14 12 156 55 156 6 0 10 -32 10 -75 0
-58 -4 -77 -15 -81 -30 -12 -2 -24 55 -24 57 0 85 12 55 24 -11 4 -15 23 -15
81 0 41 3 75 8 75 26 0 52 -35 63 -86 11 -50 11 -58 -4 -69 -26 -19 -10 -25
65 -25 64 0 87 10 53 24 -8 3 -15 14 -15 25 0 63 -53 131 -113 146 -33 9 -34
22 -4 65 31 47 52 58 78 42 25 -16 26 -16 34 31 7 37 7 37 -27 37 -46 0 -60
-13 -102 -95 l-35 -70 -1 68 c0 53 3 67 15 67 8 0 15 5 15 10 0 6 -30 10 -70
10 -40 0 -70 -4 -70 -10 0 -5 7 -10 15 -10 12 0 15 -13 15 -60 0 -33 -2 -60
-5 -60 -3 0 -16 24 -29 54 -32 72 -57 96 -102 96 l-36 0 7 -37z"/>
<path d="M906 909 l-35 -31 -3 -141 c-3 -139 -3 -142 -26 -145 -12 -2 -20 -8
-17 -13 8 -12 165 -12 165 1 0 6 -9 10 -20 10 -18 0 -20 7 -20 57 l0 57 51
-67 c48 -62 55 -67 90 -67 22 0 39 4 39 9 0 5 -24 42 -54 82 -30 41 -51 75
-48 76 4 1 19 4 34 7 48 11 72 84 46 141 -16 36 -57 55 -117 55 -42 0 -56 -5
-85 -31z m114 -8 c24 -46 4 -139 -27 -127 -9 4 -21 -1 -29 -11 -12 -16 -13 -8
-14 58 0 45 5 80 12 87 18 18 46 14 58 -7z"/>
<path d="M663 796 c3 -7 -13 -35 -35 -62 -48 -58 -60 -87 -52 -120 14 -54 81
-56 113 -3 20 32 24 31 35 -13 5 -23 12 -28 36 -28 35 0 36 2 10 88 -10 37
-24 86 -30 110 -10 40 -13 42 -46 42 -27 0 -35 -4 -31 -14z m37 -117 c0 -9 -9
-24 -20 -34 -16 -15 -22 -15 -35 -5 -21 18 -19 53 7 85 l22 28 13 -29 c6 -16
12 -36 13 -45z"/>
<path d="M1250 794 c0 -9 -14 -32 -31 -51 -46 -53 -65 -98 -53 -130 19 -55 77
-56 112 -1 l20 32 9 -35 c8 -29 14 -34 42 -37 23 -2 32 0 29 10 -1 7 -16 61
-33 120 l-30 108 -32 0 c-24 0 -33 -5 -33 -16z m24 -66 c11 -44 6 -77 -13 -88
-27 -14 -54 13 -45 44 9 28 34 66 44 66 4 0 10 -10 14 -22z"/>
<path d="M891 541 c-41 -22 -60 -54 -61 -103 0 -55 59 -90 90 -53 11 13 15 13
29 2 11 -10 50 -14 133 -15 116 -1 118 -1 139 26 l22 27 -7 -27 c-6 -26 -4
-28 24 -28 16 0 30 5 30 10 0 6 -4 10 -10 10 -5 0 -10 15 -10 34 0 19 5 38 10
41 22 13 8 25 -29 25 -54 0 -95 -42 -56 -56 18 -7 12 -20 -17 -35 -20 -11 -21
-9 -16 39 l5 50 -57 0 -57 0 5 -49 c4 -43 2 -49 -12 -43 -11 4 -16 18 -16 45
0 33 -4 40 -25 45 -14 3 -32 4 -40 0 -19 -7 -20 -36 0 -36 8 0 15 5 15 10 0 6
5 10 10 10 6 0 10 -7 10 -15 0 -8 -5 -15 -12 -15 -6 0 -20 -7 -30 -17 -17 -15
-18 -15 -18 9 0 29 -28 58 -56 58 -14 0 -11 5 14 20 17 11 32 27 32 35 0 18 3
18 -39 -4z m14 -111 c0 -24 -5 -36 -17 -38 -19 -4 -32 29 -23 59 11 34 40 19
40 -21z m215 24 c0 -9 -5 -14 -12 -12 -18 6 -21 28 -4 28 9 0 16 -7 16 -16z
m120 1 c0 -8 -4 -15 -10 -15 -5 0 -10 7 -10 15 0 8 5 15 10 15 6 0 10 -7 10
-15z m-249 -58 c-8 -8 -11 -7 -11 4 0 20 13 34 18 19 3 -7 -1 -17 -7 -23z
m129 13 c0 -11 -7 -20 -15 -20 -8 0 -15 9 -15 20 0 11 7 20 15 20 8 0 15 -9
15 -20z"/>
<path d="M125 515 c-29 -28 -33 -79 -10 -112 21 -30 78 -40 109 -19 20 13 26
13 36 2 13 -17 92 -15 98 2 2 7 -1 12 -7 12 -6 0 -11 18 -11 40 0 34 -4 41
-25 46 -14 3 -32 4 -40 0 -19 -7 -20 -36 0 -36 8 0 15 5 15 10 0 6 5 10 10 10
6 0 10 -7 10 -15 0 -8 -5 -15 -12 -15 -6 0 -20 -7 -30 -17 -13 -12 -18 -13
-18 -3 0 9 -8 6 -23 -8 -28 -27 -49 -28 -70 -4 -20 22 -22 83 -5 100 17 17 57
15 64 -3 10 -26 32 -18 26 10 -4 22 -9 25 -49 25 -33 0 -50 -6 -68 -25z m176
-118 c-8 -8 -11 -7 -11 4 0 20 13 34 18 19 3 -7 -1 -17 -7 -23z"/>
<path d="M1083 533 c-39 -3 -53 -8 -53 -19 0 -24 114 -15 118 9 2 9 0 16 -5
15 -4 -1 -32 -3 -60 -5z"/>
<path d="M1000 521 c0 -5 5 -13 10 -16 6 -3 10 -2 10 4 0 5 -4 13 -10 16 -5 3
-10 2 -10 -4z"/>
<path d="M355 480 c-3 -5 -2 -10 3 -10 12 0 42 -72 42 -99 0 -14 -5 -18 -20
-14 -14 4 -20 0 -20 -11 0 -24 37 -20 54 7 7 12 21 43 31 70 22 59 45 63 45 7
0 -22 -5 -40 -11 -40 -5 0 -7 -5 -4 -10 4 -6 52 -9 126 -6 113 3 119 3 114
-15 -9 -27 10 -23 22 4 14 31 2 51 -26 42 -19 -6 -21 -2 -21 27 0 19 -5 39
-12 46 -15 15 -55 16 -63 2 -4 -7 -11 -8 -18 -2 -7 6 -46 10 -88 11 -76 1 -76
1 -76 -24 0 -28 -9 -42 -19 -32 -4 3 -6 18 -6 32 0 19 -6 25 -24 25 -12 0 -26
-4 -29 -10z m195 -26 c0 -9 -5 -14 -12 -12 -18 6 -21 28 -4 28 9 0 16 -7 16
-16z m58 4 c9 -9 15 -9 24 0 15 15 28 16 28 2 0 -6 -12 -15 -26 -20 -14 -6
-28 -19 -31 -30 -9 -34 -23 -22 -23 20 0 41 7 49 28 28z m-58 -48 c0 -11 -7
-20 -15 -20 -8 0 -15 9 -15 20 0 11 7 20 15 20 8 0 15 -9 15 -20z m101 -13
c-16 -16 -26 0 -10 19 9 11 15 12 17 4 2 -6 -1 -17 -7 -23z"/>
<path d="M765 381 c-9 -43 -40 -67 -68 -54 -39 19 -56 22 -63 12 -4 -6 -13 -4
-25 7 -10 9 -19 12 -19 6 0 -6 5 -14 10 -17 14 -9 12 -25 -2 -25 -7 0 -21 -7
-31 -14 -17 -13 -13 -16 36 -30 69 -20 137 -20 184 -1 19 8 51 15 70 15 46 0
113 35 113 59 0 25 -15 30 -72 23 -41 -4 -49 -1 -71 22 -32 34 -54 33 -62 -3z
m28 -83 c21 -11 21 -12 -13 -24 -49 -18 -77 -17 -108 4 l-26 17 39 6 c66 10
85 10 108 -3z"/>
</g>
</svg>
